# xmcd
#
# Track frame offsets:
#	150
#	15850
#	33037
#	51175
#	67095
#	87535
#	102550
#	117240
#	136305
#	150692
#	171647
#	185112
#
# Disc length: 2728 seconds
#
# Revision: 3
# Processed by: cddbd v1.4PL0 Copyright (c) Steve Scherf et al.
# Submitted via: audiograbber 1.80.04
#
DISCID=a60aa60c
DTITLE=Wanderlea - Te Amo
DYEAR=1900
DGENRE=
TTITLE0=Te Amo
TTITLE1=Eu Ja Nem Sei
TTITLE2=Ternura
TTITLE3=Tem Que Ser Assim
TTITLE4=Me Ame ou Me Deixe
TTITLE5=Capela do Amor
TTITLE6=Prova de Fogo
TTITLE7=Preciso Te Esquecer
TTITLE8=Nossa Cancao
TTITLE9=Nunca Mais Vou Repetir Que Te Amo
TTITLE10=Imenso Amor
TTITLE11=Foi Assim
EXTD=
EXTT0=
EXTT1=
EXTT2=
EXTT3=
EXTT4=
EXTT5=
EXTT6=
EXTT7=
EXTT8=
EXTT9=
EXTT10=
EXTT11=
PLAYORDER=
